<?xml version="1.0" encoding="UTF-8" standalone="no"?>
<!-- Created with Inkscape (http://www.inkscape.org/) -->

<svg
   xmlns:dc="http://purl.org/dc/elements/1.1/"
   xmlns:cc="http://creativecommons.org/ns#"
   xmlns:rdf="http://www.w3.org/1999/02/22-rdf-syntax-ns#"
   xmlns:svg="http://www.w3.org/2000/svg"
   xmlns="http://www.w3.org/2000/svg"
   xmlns:inkscape="http://www.inkscape.org/namespaces/inkscape"
   version="1.1"
   width="468.33749"
   height="468.33749"
   id="svg2"
   xml:space="preserve"><metadata
     id="metadata8"><rdf:RDF><cc:Work
         rdf:about=""><dc:format>image/svg+xml</dc:format><dc:type
           rdf:resource="http://purl.org/dc/dcmitype/StillImage" /></cc:Work></rdf:RDF></metadata><defs
     id="defs6"><clipPath
       id="clipPath18"><path
         d="M 0,3746.68 0,0 l 3746.67,0 0,3746.68 -3746.67,0 z"
         inkscape:connector-curvature="0"
         id="path20" /></clipPath></defs><g
     transform="matrix(1.25,0,0,-1.25,0,468.3375)"
     id="g10"><g
       transform="scale(0.1,0.1)"
       id="g12"><g
         id="g14"><g
           clip-path="url(#clipPath18)"
           id="g16"><path
             d="M 3736.67,1873.34 C 3736.67,844.262 2902.43,10 1873.34,10 844.238,10 10,844.262 10,1873.34 c 0,1029.09 834.238,1863.34 1863.34,1863.34 1029.09,0 1863.33,-834.25 1863.33,-1863.34"
             inkscape:connector-curvature="0"
             id="path22"
             style="fill:#ffffff;fill-opacity:1;fill-rule:nonzero;stroke:none" /><path
             d="M 3736.67,1873.34 C 3736.67,844.262 2902.43,10 1873.34,10 844.238,10 10,844.262 10,1873.34 c 0,1029.09 834.238,1863.34 1863.34,1863.34 1029.09,0 1863.33,-834.25 1863.33,-1863.34 z"
             inkscape:connector-curvature="0"
             id="path24"
             style="fill:none;stroke:#231f20;stroke-width:20;stroke-linecap:butt;stroke-linejoin:miter;stroke-miterlimit:10;stroke-opacity:1;stroke-dasharray:none" /><path
             d="m 3673.33,1873.34 c 0,-994.102 -805.88,-1800.0002 -1800,-1800.0002 -994.1,0 -1799.998,805.8982 -1799.998,1800.0002 0,994.12 805.898,1800 1799.998,1800 994.12,0 1800,-805.88 1800,-1800"
             inkscape:connector-curvature="0"
             id="path26"
             style="fill:#231f20;fill-opacity:1;fill-rule:nonzero;stroke:none" /><g
             transform="scale(10,10)"
             id="g28"><text
               transform="matrix(0.677681,-0.735356,-0.735356,-0.677681,52.5094,81.3)"
               id="text30"><tspan
                 x="0"
                 y="0"
                 id="tspan32"
                 style="font-size:55px;font-variant:normal;font-weight:bold;writing-mode:lr-tb;fill:#ffffff;fill-opacity:1;fill-rule:nonzero;stroke:none;font-family:FuturaTEE;-inkscape-font-specification:FuturaTEE-BoldCond">V</tspan></text>
<text
               transform="matrix(0.873881,-0.48614,-0.48614,-0.873881,98.6316,40.973)"
               id="text34"><tspan
                 x="0"
                 y="0"
                 id="tspan36"
                 style="font-size:55.00000381px;font-variant:normal;font-weight:bold;writing-mode:lr-tb;fill:#ffffff;fill-opacity:1;fill-rule:nonzero;stroke:none;font-family:FuturaTEE;-inkscape-font-specification:FuturaTEE-BoldCond">I</tspan></text>
<text
               transform="matrix(0.978261,-0.207376,-0.207376,-0.978261,141.227,22.2789)"
               id="text38"><tspan
                 x="0"
                 y="0"
                 id="tspan40"
                 style="font-size:54.99998474px;font-variant:normal;font-weight:bold;writing-mode:lr-tb;fill:#ffffff;fill-opacity:1;fill-rule:nonzero;stroke:none;font-family:FuturaTEE;-inkscape-font-specification:FuturaTEE-BoldCond">S</tspan></text>
<text
               transform="matrix(0.996387,0.0849274,0.0849274,-0.996387,195.547,16.407)"
               id="text42"><tspan
                 x="0"
                 y="0"
                 id="tspan44"
                 style="font-size:54.99999237px;font-variant:normal;font-weight:bold;writing-mode:lr-tb;fill:#ffffff;fill-opacity:1;fill-rule:nonzero;stroke:none;font-family:FuturaTEE;-inkscape-font-specification:FuturaTEE-BoldCond">I</tspan></text>
<text
               transform="matrix(0.91268,0.408675,0.408675,-0.91268,243.556,25.1109)"
               id="text46"><tspan
                 x="0"
                 y="0"
                 id="tspan48"
                 style="font-size:55px;font-variant:normal;font-weight:bold;writing-mode:lr-tb;fill:#ffffff;fill-opacity:1;fill-rule:nonzero;stroke:none;font-family:FuturaTEE;-inkscape-font-specification:FuturaTEE-BoldCond">O</tspan></text>
<text
               transform="matrix(0.679866,0.733337,0.733337,-0.679866,303.088,60.6719)"
               id="text50"><tspan
                 x="0"
                 y="0"
                 id="tspan52"
                 style="font-size:55.0000267px;font-variant:normal;font-weight:bold;writing-mode:lr-tb;fill:#ffffff;fill-opacity:1;fill-rule:nonzero;stroke:none;font-family:FuturaTEE;-inkscape-font-specification:FuturaTEE-BoldCond">N</tspan></text>
<text
               transform="matrix(0.715487,0.698627,0.698627,-0.715487,83.5512,273.282)"
               id="text54"><tspan
                 x="0"
                 y="0"
                 id="tspan56"
                 style="font-size:55.00013733px;font-variant:normal;font-weight:bold;writing-mode:lr-tb;fill:#ffffff;fill-opacity:1;fill-rule:nonzero;stroke:none;font-family:FuturaTEE;-inkscape-font-specification:FuturaTEE-BoldCond">N</tspan></text>
<text
               transform="matrix(0.922416,0.386198,0.386198,-0.922416,129.64,308.488)"
               id="text58"><tspan
                 x="0"
                 y="0"
                 id="tspan60"
                 style="font-size:55.00000381px;font-variant:normal;font-weight:bold;writing-mode:lr-tb;fill:#ffffff;fill-opacity:1;fill-rule:nonzero;stroke:none;font-family:FuturaTEE;-inkscape-font-specification:FuturaTEE-BoldCond">I</tspan></text>
<text
               transform="matrix(0.999848,0.0174179,0.0174179,-0.999848,170.534,321.062)"
               id="text62"><tspan
                 x="0"
                 y="0"
                 id="tspan64"
                 style="font-size:54.99998474px;font-variant:normal;font-weight:bold;writing-mode:lr-tb;fill:#ffffff;fill-opacity:1;fill-rule:nonzero;stroke:none;font-family:FuturaTEE;-inkscape-font-specification:FuturaTEE-BoldCond">G</tspan></text>
<text
               transform="matrix(0.916086,-0.400982,-0.400982,-0.916086,228.38,315.68)"
               id="text66"><tspan
                 x="0"
                 y="0"
                 id="tspan68"
                 style="font-size:55.00000381px;font-variant:normal;font-weight:bold;writing-mode:lr-tb;fill:#ffffff;fill-opacity:1;fill-rule:nonzero;stroke:none;font-family:FuturaTEE;-inkscape-font-specification:FuturaTEE-BoldCond">H</tspan></text>
<text
               transform="matrix(0.692333,-0.721578,-0.721578,-0.692333,277.575,286.829)"
               id="text70"><tspan
                 x="0"
                 y="0"
                 id="tspan72"
                 style="font-size:54.99999619px;font-variant:normal;font-weight:bold;writing-mode:lr-tb;fill:#ffffff;fill-opacity:1;fill-rule:nonzero;stroke:none;font-family:FuturaTEE;-inkscape-font-specification:FuturaTEE-BoldCond">T</tspan></text>
</g><path
             d="m 3133.33,1873.34 c 0,-695.88 -564.13,-1260 -1260,-1260 -695.87,0 -1259.99,564.12 -1259.99,1260 0,695.88 564.12,1260 1259.99,1260 695.87,0 1260,-564.12 1260,-1260"
             inkscape:connector-curvature="0"
             id="path74"
             style="fill:#ffffff;fill-opacity:1;fill-rule:nonzero;stroke:none" /><path
             d="m 3079.99,1873.34 c 0,-666.43 -540.22,-1206.668 -1206.65,-1206.668 -666.43,0 -1206.668,540.238 -1206.668,1206.668 0,666.43 540.238,1206.66 1206.668,1206.66 666.43,0 1206.65,-540.23 1206.65,-1206.66"
             inkscape:connector-curvature="0"
             id="path76"
             style="fill:#231f20;fill-opacity:1;fill-rule:nonzero;stroke:none" /><path
             d="m 3079.99,1873.34 c 0,-666.43 -540.22,-1206.668 -1206.65,-1206.668 -666.43,0 -1206.668,540.238 -1206.668,1206.668 0,666.43 540.238,1206.66 1206.668,1206.66 666.43,0 1206.65,-540.23 1206.65,-1206.66 z"
             inkscape:connector-curvature="0"
             id="path78"
             style="fill:none;stroke:#231f20;stroke-width:20;stroke-linecap:butt;stroke-linejoin:miter;stroke-miterlimit:10;stroke-opacity:1;stroke-dasharray:none" /><path
             d="m 1346.67,1873.35 c 0,548.35 365.8,1011.2 866.67,1158.02 -107.85,31.61 -221.93,48.65 -340,48.65 -666.42,0 -1206.668,-540.24 -1206.668,-1206.67 0,-666.43 540.248,-1206.67 1206.668,-1206.67 118.07,0 232.15,17.031 340,48.648 C 1712.47,862.148 1346.67,1325 1346.67,1873.35"
             inkscape:connector-curvature="0"
             id="path80"
             style="fill:#ffffff;fill-opacity:1;fill-rule:nonzero;stroke:none" /><path
             d="m 1346.67,1873.35 c 0,548.35 365.8,1011.2 866.67,1158.02 -107.85,31.61 -221.93,48.65 -340,48.65 -666.42,0 -1206.668,-540.24 -1206.668,-1206.67 0,-666.43 540.248,-1206.67 1206.668,-1206.67 118.07,0 232.15,17.031 340,48.648 C 1712.47,862.148 1346.67,1325 1346.67,1873.35 z"
             inkscape:connector-curvature="0"
             id="path82"
             style="fill:none;stroke:#231f20;stroke-width:20;stroke-linecap:butt;stroke-linejoin:miter;stroke-miterlimit:10;stroke-opacity:1;stroke-dasharray:none" /><path
             d="m 350.48,1906.38 127.02,66.77 -24.258,-141.44 102.766,-100.17 -142.016,-20.63 -63.512,-128.69 -63.507,128.69 -142.024,20.63 102.766,100.17 -24.258,141.44 127.023,-66.77"
             inkscape:connector-curvature="0"
             id="path84"
             style="fill:#ffffff;fill-opacity:1;fill-rule:nonzero;stroke:none" /><path
             d="m 3390.47,1906.38 127.03,66.77 -24.25,-141.44 102.75,-100.17 -142.01,-20.63 -63.52,-128.69 -63.49,128.69 -142.03,20.63 102.77,100.17 -24.26,141.44 127.01,-66.77"
             inkscape:connector-curvature="0"
             id="path86"
             style="fill:#ffffff;fill-opacity:1;fill-rule:nonzero;stroke:none" /></g></g></g></g></svg>